<svg xmlns="http://www.w3.org/2000/svg" viewBox="0 0 115.09 155.02"><defs><style>.cls-1{fill:#401c59;}.cls-2,.cls-5{fill:#0d1036;}.cls-3{fill:none;stroke:#fff;stroke-miterlimit:10;}.cls-4{fill:#2b2e6f;}.cls-5{font-size:9.61px;font-family:ARDESTINE, AR DESTINE;}</style></defs><title>MINIMALAsset 1</title><g id="Layer_2" data-name="Layer 2"><g id="Layer_1-2" data-name="Layer 1"><path class="cls-1" d="M114.72,90c-6.16.09-9.47-3.24-15-9.44-3.15-3.55-8.55-5.18-14-5.84a36.54,36.54,0,0,0-10.62-9.49C82,62.55,90.9,60.33,96.94,63.46c4.25,2.2,7.47,3.77,10.54,4.27A58,58,0,0,1,114.72,90Z"/><path class="cls-1" d="M115.09,96.59a58.7,58.7,0,0,1-1,10.6c-6,0-9.25-3.35-14.65-9.44A15.73,15.73,0,0,0,93,93.59,36.22,36.22,0,0,0,87,76.49c4.82.79,9.39,2.43,12.18,5.58,5.7,6.43,9.05,9.78,15.66,9.42C115,93.17,115.09,94.88,115.09,96.59Z"/><path class="cls-1" d="M113.82,108.74a57.67,57.67,0,0,1-5.66,15.49c-4.58-.8-7.67-4-12.33-9.26a15.33,15.33,0,0,0-5.77-3.85,36.25,36.25,0,0,0,3-14.53c0-.4,0-.8,0-1.2a15.26,15.26,0,0,1,5.89,3.91C104.41,105.47,107.71,108.8,113.82,108.74Z"/><path class="cls-1" d="M107.33,125.72a58.18,58.18,0,0,1-8.58,11.41,45.23,45.23,0,0,1-7.19-7c-2.69-3-7-4.66-11.61-5.48a36.55,36.55,0,0,0,9.42-12,15.17,15.17,0,0,1,5.92,3.92C99.84,121.67,102.9,124.85,107.33,125.72Z"/><path class="cls-2" d="M106.37,65.87c-2.79-.65-5.79-2.11-9.6-4.06C90.12,58.41,80,61.32,73,64.22a37.34,37.34,0,0,0-39.71,3.64l0-.44c.79-6.21,1.28-12.29,1.57-18.26C35,46.63,35,44.24,35,42a59.58,59.58,0,0,1,71.4,23.9Z"/><path class="cls-2" d="M96.31,138.62a58.47,58.47,0,0,1-16.93,11.62h0c-1.28.58-2.58,1.11-3.91,1.6l-1.23-.21a56.41,56.41,0,0,1-27.15-13,59,59,0,0,1-8.88-9.54,36.46,36.46,0,0,0,38.71-2.81c5,.75,9.89,2.39,12.8,5.68A50.82,50.82,0,0,0,96.31,138.62Z"/><path class="cls-3" d="M47.94,126.87a35.93,35.93,0,0,1-2.64-4"/><path class="cls-4" d="M75.48,151.88a57.7,57.7,0,0,1-28,2.39,59.5,59.5,0,0,1-32.77-33.48c-3.54-9-4-18.45-3.38-28.2.74-10.82,7.15-26.86,12.58-44.24,3.4-10.88,6.42-22.3,7.42-33.28,3.21,6.09,5.32,14.36,5.55,25.49.05,2.3,0,4.71-.1,7.26-.29,6-.76,12.18-1.53,18.45l-.05.44c0,.21,0,.42-.08.63-1.94,15.44-5.41,31.74-1.78,47.3A43.13,43.13,0,0,0,38.29,127c.39.65.79,1.29,1.22,1.92a43,43,0,0,0,9.22,9.9A55.1,55.1,0,0,0,75.48,151.88Z"/><path class="cls-2" d="M47.94,154.33A54.59,54.59,0,0,1,41,152.7l-1-.31-1.53-.52-.94-.35-.94-.37-.84-.34a53.87,53.87,0,0,1-4.91-2.34l-.72-.39-1-.58-1.36-.82q-1.71-1.05-3.33-2.22l-1.07-.79a1.56,1.56,0,0,1-.2-.16c-.39-.29-.77-.58-1.15-.89l-.63-.51c-.21-.17-.41-.33-.6-.5l-.59-.51q-1.18-1-2.31-2.1l-.76-.75c-.21-.2-.41-.41-.61-.62q-1.7-1.74-3.24-3.6c-.24-.29-.48-.59-.71-.89s-.48-.59-.7-.89-.37-.48-.54-.72L11,131.2l-.55-.77c-.59-.84-1.16-1.68-1.7-2.53l-.45-.74c-.16-.26-.32-.52-.47-.78C3,118.11,1,109,.15,99.3c0-.23,0-.46,0-.7s0-.37,0-.57V97.9s0,0,0,0q0-.35,0-.69c0-.18,0-.35,0-.53C-.13,90.19,1,82,2.51,72.94c.1-.59.2-1.18.29-1.78.07-.42.15-.84.21-1.27.24-1.45.49-2.92.73-4.41.19-1.12.37-2.24.56-3.37l.39-2.46.48-3.09c0-.11,0-.22,0-.34.16-1.09.33-2.18.48-3.28,0-.26.07-.51.11-.77.07-.46.13-.92.19-1.37.25-1.83.48-3.65.69-5.49q.21-1.83.39-3.66c0-.51.1-1,.14-1.51s.09-1,.13-1.53a.11.11,0,0,0,0,0c0-.5.08-1,.11-1.48l.09-1.35c0-.43.06-.87.08-1.31,0-.07,0-.13,0-.2,0-.58.06-1.16.08-1.73,0,0,0,0,0,0,0-.47,0-.93.06-1.39s0-.71,0-1.06c0-.18,0-.36,0-.53,0-.4,0-.8,0-1.2V27.11c0-.61,0-1.21,0-1.81,0-1.27-.06-2.53-.13-3.78,0-.7-.07-1.4-.13-2.1-.1-1.31-.22-2.61-.38-3.9C7.14,15,7.06,14.38,7,13.81c-.17-1.15-.36-2.27-.58-3.39-.16-.84-.34-1.67-.53-2.49A54.64,54.64,0,0,0,3.36,0h.41l1.6,0L6.3.08h.14c.3,0,.6,0,.91.07l.46,0,.6.06L9.68.43l.94.16.2,0,.61.11L12,.88c.38.07.75.17,1.13.27s.53.13.79.21l.14,0,.82.25c.66.21,1.32.45,2,.71l.82.33a29.28,29.28,0,0,1,3,1.49l.32.19c.41.24.81.49,1.21.76l.31.21.79.56.35.27a1.24,1.24,0,0,1,.18.14c.17.13.34.26.5.4a28.55,28.55,0,0,1,5.5,6c.12.17.25.34.36.53,1.28,2.1,1.17,1.87,1.71,2.89-1,10.91-4,22.24-7.36,33C19.16,66.43,12.79,82.35,12.06,93.09c-.66,9.68-.16,19,3.35,28A59.12,59.12,0,0,0,47.94,154.33Z"/><text class="cls-5" transform="matrix(0.95, 0.3, -0.3, 0.95, 59.91, 68.36)">B</text><text class="cls-5" transform="translate(65.72 70.24) rotate(29.54)">B</text><text class="cls-5" transform="translate(71.01 73.29) rotate(40.78)">O</text><text class="cls-5" transform="translate(75.25 77.11) rotate(48.79)">I</text><text class="cls-5" transform="translate(77.12 79.04) rotate(57.65)">N</text><text class="cls-5" transform="translate(80.59 84.55) rotate(70.21)">N</text><text class="cls-5" transform="translate(82.74 90.71) rotate(81.96)">O</text><text class="cls-5" transform="translate(83.53 96.28) rotate(93.28)">V</text><text class="cls-5" transform="translate(83.16 102.47) rotate(105.27)">A</text><text class="cls-5" transform="translate(81.49 108.47) rotate(117.02)">T</text><text class="cls-5" transform="matrix(-0.62, 0.79, -0.79, -0.62, 78.76, 113.76)">E</text></g></g></svg>